# xmcd CD database file
#
# Track frame offsets:
#	150
#	26051
#	44935
#	65899
#	89461
#	112387
#	134815
#	157291
#	180056
#	200294
#
# Disc length: 2949 seconds
#
# Revision: 0
# Processed by: cddbd v1.5.2PL0 Copyright (c) Steve Scherf et al.
# Submitted via: CDex 1.51
#
DISCID=a00b830a
DTITLE=Ismael Miranda - Ismael Miranda (2)
DYEAR=1900
DGENRE=Salsa
TTITLE0=No Me Digas Que Es Muy Tarde
TTITLE1=Gotas De Nostalgia
TTITLE2=Baila La Morena
TTITLE3=Jorobao De Esquina
TTITLE4=El Artista
TTITLE5=Te Conozco
TTITLE6=No Me Digas Adios
TTITLE7=Pero Tu No Estas
TTITLE8=Te Quiero Mia
TTITLE9=Hasta La Ultima Gota
EXTD=
EXTT0=
EXTT1=
EXTT2=
EXTT3=
EXTT4=
EXTT5=
EXTT6=
EXTT7=
EXTT8=
EXTT9=
PLAYORDER=
